<?xml version="1.0" encoding="iso-8859-1"?>
<!-- Uploaded to: SVG Repo, www.svgrepo.com, Generator: SVG Repo Mixer Tools -->
<!DOCTYPE svg PUBLIC "-//W3C//DTD SVG 1.1//EN" "http://www.w3.org/Graphics/SVG/1.1/DTD/svg11.dtd">
<svg fill="#000000" version="1.1" id="Capa_1" xmlns="http://www.w3.org/2000/svg" xmlns:xlink="http://www.w3.org/1999/xlink" 
	 width="800px" height="800px" viewBox="0 0 43.455 43.455"
	 xml:space="preserve">
<g>
	<path d="M41.679,17.684c-3.51-6.672-8.969-10.732-14.854-12.211c0.007-0.115,0.034-0.225,0.034-0.342
		c0-0.244-0.039-0.479-0.072-0.715h5.254c0.483,0,0.875-0.393,0.875-0.875s-0.392-0.875-0.875-0.875h-5.839
		C25.327,1.084,23.662,0,21.728,0c-1.935,0-3.6,1.084-4.474,2.666h-5.839c-0.483,0-0.875,0.393-0.875,0.875s0.392,0.875,0.875,0.875
		h5.254c-0.033,0.234-0.072,0.471-0.072,0.715c0,0.117,0.027,0.227,0.034,0.342C10.743,6.952,5.285,11.012,1.776,17.684
		c-2.756,5.201-1.821,11.361,0.25,12.11c0.566,1.995,2.034,3.587,3.917,4.229c3.056,5.734,9.105,9.432,15.813,9.432
		c6.714,0,12.773-3.706,15.826-9.455c1.852-0.656,3.289-2.234,3.85-4.205C43.499,29.044,44.435,22.885,41.679,17.684z M35.65,30.332
		c-0.002,0-0.003,0.001-0.005,0.001c-0.267,0-0.517-0.062-0.747-0.165c-1.86,5.396-7.035,9.287-13.143,9.287
		c-6.114,0-11.295-3.896-13.149-9.307c-0.229,0.109-0.48,0.168-0.743,0.179c-0.018,0-0.036,0.006-0.054,0.006
		c-0.269,0-0.523-0.063-0.757-0.169c-0.756-0.346-1.288-1.184-1.288-2.168c0-0.053,0.01-0.1,0.013-0.148
		c0.058-1.025,0.686-1.869,1.535-2.111c0.091-0.025,0.186-0.041,0.282-0.053c0.357,0.637,0.784,1.248,1.288,1.819
		c-0.346-1.118-0.54-2.271-0.574-3.414c-0.003-0.11-0.014-0.226-0.014-0.337c0-3.735,1.661-6.867,4.667-8.438
		c0.813-0.426,1.76-0.563,2.723-0.563c1.021,0,1.988,0.228,2.877,0.619c1.255,0.554,2.348,1.446,3.166,2.586
		c0.817-1.14,1.91-2.032,3.166-2.587c0.889-0.393,1.854-0.618,2.877-0.618c0.963,0,1.91,0.138,2.723,0.563
		c3.006,1.571,4.667,4.703,4.667,8.438c0,0.111-0.01,0.227-0.014,0.337c-0.034,1.146-0.229,2.296-0.574,3.414
		c0.503-0.571,0.93-1.185,1.288-1.819c0.096,0.012,0.191,0.025,0.283,0.053c0.849,0.242,1.477,1.086,1.535,2.111
		c0.003,0.051,0.013,0.1,0.013,0.148c0,0.984-0.533,1.822-1.289,2.168C36.168,30.27,35.915,30.332,35.65,30.332z M24.006,30.01
		c0,0.506-1.021,0.912-2.278,0.912s-2.28-0.406-2.28-0.912c0-0.504,1.021-0.912,2.28-0.912S24.006,29.506,24.006,30.01z
		 M17.628,25.012c0,0.69-0.862,1.174-2.096,1.174c-1.234,0-2.097-0.481-2.097-1.174c0-0.693,0.862-1.176,2.097-1.176
		C16.768,23.836,17.628,24.318,17.628,25.012z M30.02,25.012c0,0.69-0.862,1.174-2.099,1.174c-1.233,0-2.096-0.481-2.096-1.174
		c0-0.693,0.862-1.176,2.096-1.176C29.156,23.836,30.02,24.318,30.02,25.012z"/>
</g>
</svg>